<?xml version="1.0" encoding="utf-8" standalone="no"?>
<!DOCTYPE svg PUBLIC "-//W3C//DTD SVG 1.1//EN"
  "http://www.w3.org/Graphics/SVG/1.1/DTD/svg11.dtd">
<svg xmlns:xlink="http://www.w3.org/1999/xlink" width="460.8pt" height="345.6pt" viewBox="0 0 460.8 345.6" xmlns="http://www.w3.org/2000/svg" version="1.1">
 <metadata>
  <rdf:RDF xmlns:dc="http://purl.org/dc/elements/1.1/" xmlns:cc="http://creativecommons.org/ns#" xmlns:rdf="http://www.w3.org/1999/02/22-rdf-syntax-ns#">
   <cc:Work>
    <dc:type rdf:resource="http://purl.org/dc/dcmitype/StillImage"/>
    <dc:date>2023-11-17T23:46:05.368921</dc:date>
    <dc:format>image/svg+xml</dc:format>
    <dc:creator>
     <cc:Agent>
      <dc:title>Matplotlib v3.8.1, https://matplotlib.org/</dc:title>
     </cc:Agent>
    </dc:creator>
   </cc:Work>
  </rdf:RDF>
 </metadata>
 <defs>
  <style type="text/css">*{stroke-linejoin: round; stroke-linecap: butt}</style>
 </defs>
 <g id="figure_1">
  <g id="patch_1">
   <path d="M 0 345.6 
L 460.8 345.6 
L 460.8 0 
L 0 0 
z
" style="fill: #ffffff"/>
  </g>
  <g id="axes_1">
   <g id="patch_2">
    <path d="M 57.6 307.584 
L 414.72 307.584 
L 414.72 41.472 
L 57.6 41.472 
z
" style="fill: #ffffff"/>
   </g>
   <g id="matplotlib.axis_1">
    <g id="xtick_1">
     <g id="line2d_1">
      <path d="M 73.832727 307.584 
L 73.832727 41.472 
" clip-path="url(#p9d43647be0)" style="fill: none; stroke: #b0b0b0; stroke-width: 0.8; stroke-linecap: square"/>
     </g>
     <g id="line2d_2">
      <defs>
       <path id="m55a47964df" d="M 0 0 
L 0 3.5 
" style="stroke: #000000; stroke-width: 0.8"/>
      </defs>
      <g>
       <use xlink:href="#m55a47964df" x="73.832727" y="307.584" style="stroke: #000000; stroke-width: 0.8"/>
      </g>
     </g>
     <g id="text_1">
      <!-- 0.0 -->
      <g transform="translate(65.881165 322.182437) scale(0.1 -0.1)">
       <defs>
        <path id="DejaVuSans-30" d="M 2034 4250 
Q 1547 4250 1301 3770 
Q 1056 3291 1056 2328 
Q 1056 1369 1301 889 
Q 1547 409 2034 409 
Q 2525 409 2770 889 
Q 3016 1369 3016 2328 
Q 3016 3291 2770 3770 
Q 2525 4250 2034 4250 
z
M 2034 4750 
Q 2819 4750 3233 4129 
Q 3647 3509 3647 2328 
Q 3647 1150 3233 529 
Q 2819 -91 2034 -91 
Q 1250 -91 836 529 
Q 422 1150 422 2328 
Q 422 3509 836 4129 
Q 1250 4750 2034 4750 
z
" transform="scale(0.015625)"/>
        <path id="DejaVuSans-2e" d="M 684 794 
L 1344 794 
L 1344 0 
L 684 0 
L 684 794 
z
" transform="scale(0.015625)"/>
       </defs>
       <use xlink:href="#DejaVuSans-30"/>
       <use xlink:href="#DejaVuSans-2e" x="63.623047"/>
       <use xlink:href="#DejaVuSans-30" x="95.410156"/>
      </g>
     </g>
    </g>
    <g id="xtick_2">
     <g id="line2d_3">
      <path d="M 138.763701 307.584 
L 138.763701 41.472 
" clip-path="url(#p9d43647be0)" style="fill: none; stroke: #b0b0b0; stroke-width: 0.8; stroke-linecap: square"/>
     </g>
     <g id="line2d_4">
      <g>
       <use xlink:href="#m55a47964df" x="138.763701" y="307.584" style="stroke: #000000; stroke-width: 0.8"/>
      </g>
     </g>
     <g id="text_2">
      <!-- 0.2 -->
      <g transform="translate(130.812139 322.182437) scale(0.1 -0.1)">
       <defs>
        <path id="DejaVuSans-32" d="M 1228 531 
L 3431 531 
L 3431 0 
L 469 0 
L 469 531 
Q 828 903 1448 1529 
Q 2069 2156 2228 2338 
Q 2531 2678 2651 2914 
Q 2772 3150 2772 3378 
Q 2772 3750 2511 3984 
Q 2250 4219 1831 4219 
Q 1534 4219 1204 4116 
Q 875 4013 500 3803 
L 500 4441 
Q 881 4594 1212 4672 
Q 1544 4750 1819 4750 
Q 2544 4750 2975 4387 
Q 3406 4025 3406 3419 
Q 3406 3131 3298 2873 
Q 3191 2616 2906 2266 
Q 2828 2175 2409 1742 
Q 1991 1309 1228 531 
z
" transform="scale(0.015625)"/>
       </defs>
       <use xlink:href="#DejaVuSans-30"/>
       <use xlink:href="#DejaVuSans-2e" x="63.623047"/>
       <use xlink:href="#DejaVuSans-32" x="95.410156"/>
      </g>
     </g>
    </g>
    <g id="xtick_3">
     <g id="line2d_5">
      <path d="M 203.694675 307.584 
L 203.694675 41.472 
" clip-path="url(#p9d43647be0)" style="fill: none; stroke: #b0b0b0; stroke-width: 0.8; stroke-linecap: square"/>
     </g>
     <g id="line2d_6">
      <g>
       <use xlink:href="#m55a47964df" x="203.694675" y="307.584" style="stroke: #000000; stroke-width: 0.8"/>
      </g>
     </g>
     <g id="text_3">
      <!-- 0.4 -->
      <g transform="translate(195.743113 322.182437) scale(0.1 -0.1)">
       <defs>
        <path id="DejaVuSans-34" d="M 2419 4116 
L 825 1625 
L 2419 1625 
L 2419 4116 
z
M 2253 4666 
L 3047 4666 
L 3047 1625 
L 3713 1625 
L 3713 1100 
L 3047 1100 
L 3047 0 
L 2419 0 
L 2419 1100 
L 313 1100 
L 313 1709 
L 2253 4666 
z
" transform="scale(0.015625)"/>
       </defs>
       <use xlink:href="#DejaVuSans-30"/>
       <use xlink:href="#DejaVuSans-2e" x="63.623047"/>
       <use xlink:href="#DejaVuSans-34" x="95.410156"/>
      </g>
     </g>
    </g>
    <g id="xtick_4">
     <g id="line2d_7">
      <path d="M 268.625649 307.584 
L 268.625649 41.472 
" clip-path="url(#p9d43647be0)" style="fill: none; stroke: #b0b0b0; stroke-width: 0.8; stroke-linecap: square"/>
     </g>
     <g id="line2d_8">
      <g>
       <use xlink:href="#m55a47964df" x="268.625649" y="307.584" style="stroke: #000000; stroke-width: 0.8"/>
      </g>
     </g>
     <g id="text_4">
      <!-- 0.6 -->
      <g transform="translate(260.674087 322.182437) scale(0.1 -0.1)">
       <defs>
        <path id="DejaVuSans-36" d="M 2113 2584 
Q 1688 2584 1439 2293 
Q 1191 2003 1191 1497 
Q 1191 994 1439 701 
Q 1688 409 2113 409 
Q 2538 409 2786 701 
Q 3034 994 3034 1497 
Q 3034 2003 2786 2293 
Q 2538 2584 2113 2584 
z
M 3366 4563 
L 3366 3988 
Q 3128 4100 2886 4159 
Q 2644 4219 2406 4219 
Q 1781 4219 1451 3797 
Q 1122 3375 1075 2522 
Q 1259 2794 1537 2939 
Q 1816 3084 2150 3084 
Q 2853 3084 3261 2657 
Q 3669 2231 3669 1497 
Q 3669 778 3244 343 
Q 2819 -91 2113 -91 
Q 1303 -91 875 529 
Q 447 1150 447 2328 
Q 447 3434 972 4092 
Q 1497 4750 2381 4750 
Q 2619 4750 2861 4703 
Q 3103 4656 3366 4563 
z
" transform="scale(0.015625)"/>
       </defs>
       <use xlink:href="#DejaVuSans-30"/>
       <use xlink:href="#DejaVuSans-2e" x="63.623047"/>
       <use xlink:href="#DejaVuSans-36" x="95.410156"/>
      </g>
     </g>
    </g>
    <g id="xtick_5">
     <g id="line2d_9">
      <path d="M 333.556623 307.584 
L 333.556623 41.472 
" clip-path="url(#p9d43647be0)" style="fill: none; stroke: #b0b0b0; stroke-width: 0.8; stroke-linecap: square"/>
     </g>
     <g id="line2d_10">
      <g>
       <use xlink:href="#m55a47964df" x="333.556623" y="307.584" style="stroke: #000000; stroke-width: 0.8"/>
      </g>
     </g>
     <g id="text_5">
      <!-- 0.8 -->
      <g transform="translate(325.605061 322.182437) scale(0.1 -0.1)">
       <defs>
        <path id="DejaVuSans-38" d="M 2034 2216 
Q 1584 2216 1326 1975 
Q 1069 1734 1069 1313 
Q 1069 891 1326 650 
Q 1584 409 2034 409 
Q 2484 409 2743 651 
Q 3003 894 3003 1313 
Q 3003 1734 2745 1975 
Q 2488 2216 2034 2216 
z
M 1403 2484 
Q 997 2584 770 2862 
Q 544 3141 544 3541 
Q 544 4100 942 4425 
Q 1341 4750 2034 4750 
Q 2731 4750 3128 4425 
Q 3525 4100 3525 3541 
Q 3525 3141 3298 2862 
Q 3072 2584 2669 2484 
Q 3125 2378 3379 2068 
Q 3634 1759 3634 1313 
Q 3634 634 3220 271 
Q 2806 -91 2034 -91 
Q 1263 -91 848 271 
Q 434 634 434 1313 
Q 434 1759 690 2068 
Q 947 2378 1403 2484 
z
M 1172 3481 
Q 1172 3119 1398 2916 
Q 1625 2713 2034 2713 
Q 2441 2713 2670 2916 
Q 2900 3119 2900 3481 
Q 2900 3844 2670 4047 
Q 2441 4250 2034 4250 
Q 1625 4250 1398 4047 
Q 1172 3844 1172 3481 
z
" transform="scale(0.015625)"/>
       </defs>
       <use xlink:href="#DejaVuSans-30"/>
       <use xlink:href="#DejaVuSans-2e" x="63.623047"/>
       <use xlink:href="#DejaVuSans-38" x="95.410156"/>
      </g>
     </g>
    </g>
    <g id="xtick_6">
     <g id="line2d_11">
      <path d="M 398.487597 307.584 
L 398.487597 41.472 
" clip-path="url(#p9d43647be0)" style="fill: none; stroke: #b0b0b0; stroke-width: 0.8; stroke-linecap: square"/>
     </g>
     <g id="line2d_12">
      <g>
       <use xlink:href="#m55a47964df" x="398.487597" y="307.584" style="stroke: #000000; stroke-width: 0.8"/>
      </g>
     </g>
     <g id="text_6">
      <!-- 1.0 -->
      <g transform="translate(390.536035 322.182437) scale(0.1 -0.1)">
       <defs>
        <path id="DejaVuSans-31" d="M 794 531 
L 1825 531 
L 1825 4091 
L 703 3866 
L 703 4441 
L 1819 4666 
L 2450 4666 
L 2450 531 
L 3481 531 
L 3481 0 
L 794 0 
L 794 531 
z
" transform="scale(0.015625)"/>
       </defs>
       <use xlink:href="#DejaVuSans-31"/>
       <use xlink:href="#DejaVuSans-2e" x="63.623047"/>
       <use xlink:href="#DejaVuSans-30" x="95.410156"/>
      </g>
     </g>
    </g>
    <g id="text_7">
     <!-- epoch -->
     <g transform="translate(220.931875 335.860562) scale(0.1 -0.1)">
      <defs>
       <path id="DejaVuSans-65" d="M 3597 1894 
L 3597 1613 
L 953 1613 
Q 991 1019 1311 708 
Q 1631 397 2203 397 
Q 2534 397 2845 478 
Q 3156 559 3463 722 
L 3463 178 
Q 3153 47 2828 -22 
Q 2503 -91 2169 -91 
Q 1331 -91 842 396 
Q 353 884 353 1716 
Q 353 2575 817 3079 
Q 1281 3584 2069 3584 
Q 2775 3584 3186 3129 
Q 3597 2675 3597 1894 
z
M 3022 2063 
Q 3016 2534 2758 2815 
Q 2500 3097 2075 3097 
Q 1594 3097 1305 2825 
Q 1016 2553 972 2059 
L 3022 2063 
z
" transform="scale(0.015625)"/>
       <path id="DejaVuSans-70" d="M 1159 525 
L 1159 -1331 
L 581 -1331 
L 581 3500 
L 1159 3500 
L 1159 2969 
Q 1341 3281 1617 3432 
Q 1894 3584 2278 3584 
Q 2916 3584 3314 3078 
Q 3713 2572 3713 1747 
Q 3713 922 3314 415 
Q 2916 -91 2278 -91 
Q 1894 -91 1617 61 
Q 1341 213 1159 525 
z
M 3116 1747 
Q 3116 2381 2855 2742 
Q 2594 3103 2138 3103 
Q 1681 3103 1420 2742 
Q 1159 2381 1159 1747 
Q 1159 1113 1420 752 
Q 1681 391 2138 391 
Q 2594 391 2855 752 
Q 3116 1113 3116 1747 
z
" transform="scale(0.015625)"/>
       <path id="DejaVuSans-6f" d="M 1959 3097 
Q 1497 3097 1228 2736 
Q 959 2375 959 1747 
Q 959 1119 1226 758 
Q 1494 397 1959 397 
Q 2419 397 2687 759 
Q 2956 1122 2956 1747 
Q 2956 2369 2687 2733 
Q 2419 3097 1959 3097 
z
M 1959 3584 
Q 2709 3584 3137 3096 
Q 3566 2609 3566 1747 
Q 3566 888 3137 398 
Q 2709 -91 1959 -91 
Q 1206 -91 779 398 
Q 353 888 353 1747 
Q 353 2609 779 3096 
Q 1206 3584 1959 3584 
z
" transform="scale(0.015625)"/>
       <path id="DejaVuSans-63" d="M 3122 3366 
L 3122 2828 
Q 2878 2963 2633 3030 
Q 2388 3097 2138 3097 
Q 1578 3097 1268 2742 
Q 959 2388 959 1747 
Q 959 1106 1268 751 
Q 1578 397 2138 397 
Q 2388 397 2633 464 
Q 2878 531 3122 666 
L 3122 134 
Q 2881 22 2623 -34 
Q 2366 -91 2075 -91 
Q 1284 -91 818 406 
Q 353 903 353 1747 
Q 353 2603 823 3093 
Q 1294 3584 2113 3584 
Q 2378 3584 2631 3529 
Q 2884 3475 3122 3366 
z
" transform="scale(0.015625)"/>
       <path id="DejaVuSans-68" d="M 3513 2113 
L 3513 0 
L 2938 0 
L 2938 2094 
Q 2938 2591 2744 2837 
Q 2550 3084 2163 3084 
Q 1697 3084 1428 2787 
Q 1159 2491 1159 1978 
L 1159 0 
L 581 0 
L 581 4863 
L 1159 4863 
L 1159 2956 
Q 1366 3272 1645 3428 
Q 1925 3584 2291 3584 
Q 2894 3584 3203 3211 
Q 3513 2838 3513 2113 
z
" transform="scale(0.015625)"/>
      </defs>
      <use xlink:href="#DejaVuSans-65"/>
      <use xlink:href="#DejaVuSans-70" x="61.523438"/>
      <use xlink:href="#DejaVuSans-6f" x="125"/>
      <use xlink:href="#DejaVuSans-63" x="186.181641"/>
      <use xlink:href="#DejaVuSans-68" x="241.162109"/>
     </g>
    </g>
    <g id="text_8">
     <!-- 1e6 -->
     <g transform="translate(395.841875 334.860562) scale(0.1 -0.1)">
      <use xlink:href="#DejaVuSans-31"/>
      <use xlink:href="#DejaVuSans-65" x="63.623047"/>
      <use xlink:href="#DejaVuSans-36" x="125.146484"/>
     </g>
    </g>
   </g>
   <g id="matplotlib.axis_2">
    <g id="ytick_1">
     <g id="line2d_13">
      <path d="M 57.6 282.312428 
L 414.72 282.312428 
" clip-path="url(#p9d43647be0)" style="fill: none; stroke: #b0b0b0; stroke-width: 0.8; stroke-linecap: square"/>
     </g>
     <g id="line2d_14">
      <defs>
       <path id="m5c26ab164c" d="M 0 0 
L -3.5 0 
" style="stroke: #000000; stroke-width: 0.8"/>
      </defs>
      <g>
       <use xlink:href="#m5c26ab164c" x="57.6" y="282.312428" style="stroke: #000000; stroke-width: 0.8"/>
      </g>
     </g>
     <g id="text_9">
      <!-- $\mathdefault{10^{-9}}$ -->
      <g transform="translate(27.1 286.111647) scale(0.1 -0.1)">
       <defs>
        <path id="DejaVuSans-2212" d="M 678 2272 
L 4684 2272 
L 4684 1741 
L 678 1741 
L 678 2272 
z
" transform="scale(0.015625)"/>
        <path id="DejaVuSans-39" d="M 703 97 
L 703 672 
Q 941 559 1184 500 
Q 1428 441 1663 441 
Q 2288 441 2617 861 
Q 2947 1281 2994 2138 
Q 2813 1869 2534 1725 
Q 2256 1581 1919 1581 
Q 1219 1581 811 2004 
Q 403 2428 403 3163 
Q 403 3881 828 4315 
Q 1253 4750 1959 4750 
Q 2769 4750 3195 4129 
Q 3622 3509 3622 2328 
Q 3622 1225 3098 567 
Q 2575 -91 1691 -91 
Q 1453 -91 1209 -44 
Q 966 3 703 97 
z
M 1959 2075 
Q 2384 2075 2632 2365 
Q 2881 2656 2881 3163 
Q 2881 3666 2632 3958 
Q 2384 4250 1959 4250 
Q 1534 4250 1286 3958 
Q 1038 3666 1038 3163 
Q 1038 2656 1286 2365 
Q 1534 2075 1959 2075 
z
" transform="scale(0.015625)"/>
       </defs>
       <use xlink:href="#DejaVuSans-31" transform="translate(0 0.765625)"/>
       <use xlink:href="#DejaVuSans-30" transform="translate(63.623047 0.765625)"/>
       <use xlink:href="#DejaVuSans-2212" transform="translate(128.203125 39.046875) scale(0.7)"/>
       <use xlink:href="#DejaVuSans-39" transform="translate(186.855469 39.046875) scale(0.7)"/>
      </g>
     </g>
    </g>
    <g id="ytick_2">
     <g id="line2d_15">
      <path d="M 57.6 252.247993 
L 414.72 252.247993 
" clip-path="url(#p9d43647be0)" style="fill: none; stroke: #b0b0b0; stroke-width: 0.8; stroke-linecap: square"/>
     </g>
     <g id="line2d_16">
      <g>
       <use xlink:href="#m5c26ab164c" x="57.6" y="252.247993" style="stroke: #000000; stroke-width: 0.8"/>
      </g>
     </g>
     <g id="text_10">
      <!-- $\mathdefault{10^{-7}}$ -->
      <g transform="translate(27.1 256.047212) scale(0.1 -0.1)">
       <defs>
        <path id="DejaVuSans-37" d="M 525 4666 
L 3525 4666 
L 3525 4397 
L 1831 0 
L 1172 0 
L 2766 4134 
L 525 4134 
L 525 4666 
z
" transform="scale(0.015625)"/>
       </defs>
       <use xlink:href="#DejaVuSans-31" transform="translate(0 0.684375)"/>
       <use xlink:href="#DejaVuSans-30" transform="translate(63.623047 0.684375)"/>
       <use xlink:href="#DejaVuSans-2212" transform="translate(128.203125 38.965625) scale(0.7)"/>
       <use xlink:href="#DejaVuSans-37" transform="translate(186.855469 38.965625) scale(0.7)"/>
      </g>
     </g>
    </g>
    <g id="ytick_3">
     <g id="line2d_17">
      <path d="M 57.6 222.183559 
L 414.72 222.183559 
" clip-path="url(#p9d43647be0)" style="fill: none; stroke: #b0b0b0; stroke-width: 0.8; stroke-linecap: square"/>
     </g>
     <g id="line2d_18">
      <g>
       <use xlink:href="#m5c26ab164c" x="57.6" y="222.183559" style="stroke: #000000; stroke-width: 0.8"/>
      </g>
     </g>
     <g id="text_11">
      <!-- $\mathdefault{10^{-5}}$ -->
      <g transform="translate(27.1 225.982777) scale(0.1 -0.1)">
       <defs>
        <path id="DejaVuSans-35" d="M 691 4666 
L 3169 4666 
L 3169 4134 
L 1269 4134 
L 1269 2991 
Q 1406 3038 1543 3061 
Q 1681 3084 1819 3084 
Q 2600 3084 3056 2656 
Q 3513 2228 3513 1497 
Q 3513 744 3044 326 
Q 2575 -91 1722 -91 
Q 1428 -91 1123 -41 
Q 819 9 494 109 
L 494 744 
Q 775 591 1075 516 
Q 1375 441 1709 441 
Q 2250 441 2565 725 
Q 2881 1009 2881 1497 
Q 2881 1984 2565 2268 
Q 2250 2553 1709 2553 
Q 1456 2553 1204 2497 
Q 953 2441 691 2322 
L 691 4666 
z
" transform="scale(0.015625)"/>
       </defs>
       <use xlink:href="#DejaVuSans-31" transform="translate(0 0.684375)"/>
       <use xlink:href="#DejaVuSans-30" transform="translate(63.623047 0.684375)"/>
       <use xlink:href="#DejaVuSans-2212" transform="translate(128.203125 38.965625) scale(0.7)"/>
       <use xlink:href="#DejaVuSans-35" transform="translate(186.855469 38.965625) scale(0.7)"/>
      </g>
     </g>
    </g>
    <g id="ytick_4">
     <g id="line2d_19">
      <path d="M 57.6 192.119124 
L 414.72 192.119124 
" clip-path="url(#p9d43647be0)" style="fill: none; stroke: #b0b0b0; stroke-width: 0.8; stroke-linecap: square"/>
     </g>
     <g id="line2d_20">
      <g>
       <use xlink:href="#m5c26ab164c" x="57.6" y="192.119124" style="stroke: #000000; stroke-width: 0.8"/>
      </g>
     </g>
     <g id="text_12">
      <!-- $\mathdefault{10^{-3}}$ -->
      <g transform="translate(27.1 195.918343) scale(0.1 -0.1)">
       <defs>
        <path id="DejaVuSans-33" d="M 2597 2516 
Q 3050 2419 3304 2112 
Q 3559 1806 3559 1356 
Q 3559 666 3084 287 
Q 2609 -91 1734 -91 
Q 1441 -91 1130 -33 
Q 819 25 488 141 
L 488 750 
Q 750 597 1062 519 
Q 1375 441 1716 441 
Q 2309 441 2620 675 
Q 2931 909 2931 1356 
Q 2931 1769 2642 2001 
Q 2353 2234 1838 2234 
L 1294 2234 
L 1294 2753 
L 1863 2753 
Q 2328 2753 2575 2939 
Q 2822 3125 2822 3475 
Q 2822 3834 2567 4026 
Q 2313 4219 1838 4219 
Q 1578 4219 1281 4162 
Q 984 4106 628 3988 
L 628 4550 
Q 988 4650 1302 4700 
Q 1616 4750 1894 4750 
Q 2613 4750 3031 4423 
Q 3450 4097 3450 3541 
Q 3450 3153 3228 2886 
Q 3006 2619 2597 2516 
z
" transform="scale(0.015625)"/>
       </defs>
       <use xlink:href="#DejaVuSans-31" transform="translate(0 0.765625)"/>
       <use xlink:href="#DejaVuSans-30" transform="translate(63.623047 0.765625)"/>
       <use xlink:href="#DejaVuSans-2212" transform="translate(128.203125 39.046875) scale(0.7)"/>
       <use xlink:href="#DejaVuSans-33" transform="translate(186.855469 39.046875) scale(0.7)"/>
      </g>
     </g>
    </g>
    <g id="ytick_5">
     <g id="line2d_21">
      <path d="M 57.6 162.054689 
L 414.72 162.054689 
" clip-path="url(#p9d43647be0)" style="fill: none; stroke: #b0b0b0; stroke-width: 0.8; stroke-linecap: square"/>
     </g>
     <g id="line2d_22">
      <g>
       <use xlink:href="#m5c26ab164c" x="57.6" y="162.054689" style="stroke: #000000; stroke-width: 0.8"/>
      </g>
     </g>
     <g id="text_13">
      <!-- $\mathdefault{10^{-1}}$ -->
      <g transform="translate(27.1 165.853908) scale(0.1 -0.1)">
       <use xlink:href="#DejaVuSans-31" transform="translate(0 0.684375)"/>
       <use xlink:href="#DejaVuSans-30" transform="translate(63.623047 0.684375)"/>
       <use xlink:href="#DejaVuSans-2212" transform="translate(128.203125 38.965625) scale(0.7)"/>
       <use xlink:href="#DejaVuSans-31" transform="translate(186.855469 38.965625) scale(0.7)"/>
      </g>
     </g>
    </g>
    <g id="ytick_6">
     <g id="line2d_23">
      <path d="M 57.6 131.990255 
L 414.72 131.990255 
" clip-path="url(#p9d43647be0)" style="fill: none; stroke: #b0b0b0; stroke-width: 0.8; stroke-linecap: square"/>
     </g>
     <g id="line2d_24">
      <g>
       <use xlink:href="#m5c26ab164c" x="57.6" y="131.990255" style="stroke: #000000; stroke-width: 0.8"/>
      </g>
     </g>
     <g id="text_14">
      <!-- $\mathdefault{10^{1}}$ -->
      <g transform="translate(33 135.789473) scale(0.1 -0.1)">
       <use xlink:href="#DejaVuSans-31" transform="translate(0 0.684375)"/>
       <use xlink:href="#DejaVuSans-30" transform="translate(63.623047 0.684375)"/>
       <use xlink:href="#DejaVuSans-31" transform="translate(128.203125 38.965625) scale(0.7)"/>
      </g>
     </g>
    </g>
    <g id="ytick_7">
     <g id="line2d_25">
      <path d="M 57.6 101.92582 
L 414.72 101.92582 
" clip-path="url(#p9d43647be0)" style="fill: none; stroke: #b0b0b0; stroke-width: 0.8; stroke-linecap: square"/>
     </g>
     <g id="line2d_26">
      <g>
       <use xlink:href="#m5c26ab164c" x="57.6" y="101.92582" style="stroke: #000000; stroke-width: 0.8"/>
      </g>
     </g>
     <g id="text_15">
      <!-- $\mathdefault{10^{3}}$ -->
      <g transform="translate(33 105.725039) scale(0.1 -0.1)">
       <use xlink:href="#DejaVuSans-31" transform="translate(0 0.765625)"/>
       <use xlink:href="#DejaVuSans-30" transform="translate(63.623047 0.765625)"/>
       <use xlink:href="#DejaVuSans-33" transform="translate(128.203125 39.046875) scale(0.7)"/>
      </g>
     </g>
    </g>
    <g id="ytick_8">
     <g id="line2d_27">
      <path d="M 57.6 71.861385 
L 414.72 71.861385 
" clip-path="url(#p9d43647be0)" style="fill: none; stroke: #b0b0b0; stroke-width: 0.8; stroke-linecap: square"/>
     </g>
     <g id="line2d_28">
      <g>
       <use xlink:href="#m5c26ab164c" x="57.6" y="71.861385" style="stroke: #000000; stroke-width: 0.8"/>
      </g>
     </g>
     <g id="text_16">
      <!-- $\mathdefault{10^{5}}$ -->
      <g transform="translate(33 75.660604) scale(0.1 -0.1)">
       <use xlink:href="#DejaVuSans-31" transform="translate(0 0.684375)"/>
       <use xlink:href="#DejaVuSans-30" transform="translate(63.623047 0.684375)"/>
       <use xlink:href="#DejaVuSans-35" transform="translate(128.203125 38.965625) scale(0.7)"/>
      </g>
     </g>
    </g>
    <g id="ytick_9">
     <g id="line2d_29">
      <path d="M 57.6 41.79695 
L 414.72 41.79695 
" clip-path="url(#p9d43647be0)" style="fill: none; stroke: #b0b0b0; stroke-width: 0.8; stroke-linecap: square"/>
     </g>
     <g id="line2d_30">
      <g>
       <use xlink:href="#m5c26ab164c" x="57.6" y="41.79695" style="stroke: #000000; stroke-width: 0.8"/>
      </g>
     </g>
     <g id="text_17">
      <!-- $\mathdefault{10^{7}}$ -->
      <g transform="translate(33 45.596169) scale(0.1 -0.1)">
       <use xlink:href="#DejaVuSans-31" transform="translate(0 0.684375)"/>
       <use xlink:href="#DejaVuSans-30" transform="translate(63.623047 0.684375)"/>
       <use xlink:href="#DejaVuSans-37" transform="translate(128.203125 38.965625) scale(0.7)"/>
      </g>
     </g>
    </g>
   </g>
   <g id="line2d_31">
    <path d="M 73.833049 346.6 
L 73.840844 200.680718 
L 73.944084 268.81826 
L 74.511905 270.886776 
L 74.556058 270.997476 
L 74.784615 271.503935 
L 74.844027 271.614084 
L 74.982979 271.862375 
L 75.05343 271.972517 
L 75.18459 272.146654 
L 75.261533 272.257458 
L 75.535867 272.558136 
L 75.647223 272.668849 
L 76.104013 273.056727 
L 76.305623 273.16709 
L 76.426395 273.255574 
L 76.619565 273.364681 
L 76.734817 273.410983 
L 76.735142 273.410106 
L 76.932532 273.521213 
L 77.292574 273.664902 
L 77.47081 273.775949 
L 77.819164 273.923056 
L 78.114925 274.034005 
L 78.230177 274.077836 
L 78.501914 274.18731 
L 78.617166 274.234498 
L 78.623659 274.230819 
L 78.722679 274.272974 
L 78.725276 274.272974 
L 78.727549 274.270045 
L 78.858385 274.30235 
L 79.237582 274.413059 
L 79.354457 274.477185 
L 79.63853 274.587445 
L 79.76612 274.622245 
L 80.037856 274.688426 
L 80.212845 274.798126 
L 80.325825 274.819162 
L 80.681646 274.929666 
L 80.824495 275.016881 
L 80.831312 275.013216 
L 80.931955 275.043113 
L 80.933579 275.043113 
L 81.257909 275.151821 
L 81.373161 275.200986 
L 81.702686 275.264575 
L 81.85852 275.351271 
L 82.308492 275.460535 
L 82.427316 275.554108 
L 82.42764 275.553307 
L 82.863976 275.66136 
L 82.982151 275.747348 
L 83.429201 275.857948 
L 83.599644 275.95788 
L 83.612631 275.953655 
L 83.708079 275.993103 
L 84.064875 276.100674 
L 84.180127 276.158052 
L 84.1824 276.153389 
L 84.280446 276.186739 
L 84.289211 276.186739 
L 84.627826 276.296583 
L 84.755091 276.347774 
L 84.758987 276.343412 
L 84.8645 276.374005 
L 85.011244 276.396199 
L 85.260579 276.520776 
L 85.261228 276.516622 
L 85.705031 276.62737 
L 85.943003 276.737873 
L 86.318954 276.847817 
L 86.434531 276.915971 
L 86.434855 276.911402 
L 86.66114 276.9577 
L 86.936447 277.065197 
L 87.0517 277.121036 
L 87.052024 277.116667 
L 87.160784 277.138859 
L 87.161758 277.138859 
L 87.509788 277.245529 
L 87.625365 277.308719 
L 87.760097 277.350902 
L 88.136047 277.459137 
L 88.250975 277.522109 
L 88.251299 277.51731 
L 88.35454 277.558683 
L 88.359734 277.558683 
L 88.763605 277.669769 
L 89.047028 277.76978 
L 89.367787 277.876303 
L 89.482715 277.935679 
L 89.610954 277.970321 
L 89.735946 277.989952 
L 90.026837 278.099723 
L 90.140791 278.150833 
L 90.141115 278.145782 
L 90.234616 278.179286 
L 90.250199 278.179748 
L 90.639461 278.285795 
L 90.754388 278.358524 
L 90.761855 278.353386 
L 90.815748 278.383799 
L 90.863797 278.385667 
L 90.99236 278.404066 
L 91.28877 278.511837 
L 91.403373 278.574258 
L 91.403698 278.569029 
L 91.511808 278.604158 
L 91.512782 278.604158 
L 91.703355 278.63368 
L 91.793609 278.637187 
L 91.813413 278.649389 
L 91.92834 278.718517 
L 92.237087 278.828888 
L 92.361755 278.842149 
L 92.362079 278.841652 
L 92.62505 278.949873 
L 92.739004 279.007989 
L 92.739328 279.002575 
L 92.910097 279.063203 
L 93.286372 279.171761 
L 93.400975 279.231774 
L 93.402274 279.226259 
L 93.510384 279.261456 
L 93.510708 279.25593 
L 93.95159 279.362375 
L 94.067167 279.444446 
L 94.067491 279.443913 
L 94.603172 279.5497 
L 94.720048 279.650062 
L 95.015159 279.758259 
L 95.129113 279.781322 
L 95.245015 279.802374 
L 95.422601 279.886358 
L 95.725179 279.996286 
L 95.839458 280.019065 
L 96.157295 280.129652 
L 96.287481 280.1443 
L 96.498182 280.252389 
L 96.611162 280.268888 
L 96.907897 280.379495 
L 97.042953 280.396024 
L 97.139376 280.438984 
L 97.047823 280.399373 
L 97.142947 280.445393 
L 97.502015 280.55638 
L 97.641617 280.618401 
L 97.761414 280.635181 
L 97.947766 280.724764 
L 98.308783 280.83495 
L 98.42371 280.872387 
L 98.715575 280.982967 
L 98.716224 280.982863 
L 98.829529 281.004877 
L 99.145743 281.113553 
L 99.258398 281.125195 
L 99.526563 281.235145 
L 99.639868 281.263256 
L 99.988222 281.373909 
L 100.134642 281.40269 
L 100.410274 281.516312 
L 100.756356 281.626026 
L 100.869336 281.652564 
L 101.140747 281.762685 
L 101.273856 281.782129 
L 101.275803 281.785528 
L 101.583901 281.896563 
L 101.724152 281.918068 
L 101.724476 281.917751 
L 101.991667 282.02769 
L 102.110166 282.046789 
L 102.110491 282.046063 
L 102.247171 282.080702 
L 102.247495 282.080553 
L 103.031862 282.318382 
L 103.237044 282.429272 
L 103.350348 282.450515 
L 103.674354 282.55997 
L 103.787983 282.587949 
L 104.10095 282.698381 
L 104.215553 282.720652 
L 104.52917 282.828142 
L 104.644747 282.876578 
L 105.004789 282.985583 
L 105.11712 282.996586 
L 105.400544 283.10615 
L 105.514497 283.147717 
L 105.630075 283.157195 
L 105.900512 283.26608 
L 106.013817 283.28977 
L 106.335874 283.400375 
L 106.465736 283.429984 
L 106.775457 283.539746 
L 106.889086 283.577121 
L 107.253674 283.687582 
L 107.356265 283.733233 
L 107.367952 283.728949 
L 107.768576 283.839808 
L 107.882205 283.870189 
L 108.244196 283.980205 
L 108.359123 284.02534 
L 108.498076 284.044849 
L 108.787992 284.174055 
L 108.78994 284.17025 
L 108.887986 284.191791 
L 108.897726 284.191791 
L 109.23212 284.29859 
L 109.346074 284.33758 
L 109.698 284.448631 
L 109.903831 284.49215 
L 110.214201 284.602276 
L 110.328155 284.638519 
L 110.682029 284.746031 
L 110.786243 284.787237 
L 110.795334 284.78291 
L 111.199529 284.892031 
L 111.314132 284.942195 
L 111.74917 285.053235 
L 111.864422 285.109037 
L 112.28063 285.219624 
L 112.395233 285.267241 
L 112.828647 285.374495 
L 112.943899 285.432958 
L 112.945523 285.428268 
L 113.038699 285.449679 
L 113.053957 285.448801 
L 113.353614 285.555156 
L 113.466918 285.594807 
L 113.885723 285.705424 
L 114.000002 285.752158 
L 114.005521 285.747781 
L 114.097398 285.770693 
L 114.11006 285.769547 
L 114.452246 285.877359 
L 114.565875 285.921582 
L 114.567498 285.916848 
L 114.623664 285.939578 
L 114.675609 285.942423 
L 115.048637 286.049387 
L 115.161617 286.08496 
L 115.57263 286.192114 
L 115.687233 286.256371 
L 115.687558 286.255171 
L 115.6947 286.250311 
L 115.749567 286.272006 
L 115.797291 286.275333 
L 116.194019 286.382002 
L 116.307973 286.424921 
L 116.780995 286.535216 
L 116.896248 286.599783 
L 116.901767 286.594793 
L 116.97936 286.615293 
L 117.006306 286.615918 
L 117.202397 286.635426 
L 117.338752 286.687097 
L 117.454654 286.75802 
L 117.476406 286.752971 
L 117.561141 286.778038 
L 117.564712 286.777862 
L 118.0939 286.939666 
L 118.11695 286.953574 
L 118.20201 286.964989 
L 118.617893 287.071474 
L 118.730223 287.11464 
L 118.731846 287.114216 
L 119.172728 287.225308 
L 119.328887 287.294556 
L 119.332783 287.290505 
L 119.819765 287.398747 
L 119.933719 287.465525 
L 119.934043 287.460192 
L 120.438882 287.571144 
L 120.892749 287.679254 
L 121.174874 287.789773 
L 121.289153 287.84091 
L 121.299542 287.83565 
L 121.394016 287.854697 
L 121.399536 287.853953 
L 121.808601 287.965006 
L 122.013783 288.031889 
L 122.504336 288.138695 
L 122.607576 288.194432 
L 122.61829 288.192097 
L 122.777046 288.206486 
L 123.152672 288.312429 
L 123.266626 288.370908 
L 123.26695 288.365203 
L 123.821136 288.470905 
L 123.934116 288.544946 
L 123.936389 288.544758 
L 123.938661 288.538978 
L 124.045473 288.56441 
L 124.046447 288.56441 
L 124.560375 288.670519 
L 124.674005 288.736783 
L 124.674979 288.730924 
L 125.251566 288.840033 
L 125.366818 288.913737 
L 125.986584 289.022235 
L 126.101837 289.096091 
L 126.689462 289.203295 
L 126.802442 289.243405 
L 127.408897 289.352754 
L 127.522526 289.406931 
L 127.522851 289.406736 
L 127.920229 289.515928 
L 128.335462 289.626918 
L 128.449091 289.673898 
L 129.092233 289.779152 
L 129.207161 289.857881 
L 129.208135 289.851541 
L 129.255859 289.86863 
L 129.317868 289.865508 
L 129.781475 289.974593 
L 129.897377 290.016601 
L 130.007759 290.023675 
L 129.913934 290.021383 
L 130.008084 290.024654 
L 130.120739 290.037599 
L 130.579801 290.146672 
L 130.696352 290.196293 
L 131.351831 290.30698 
L 131.532014 290.377925 
L 131.985232 290.486913 
L 132.098537 290.504833 
L 132.713433 290.615091 
L 132.829984 290.666823 
L 133.335472 290.774598 
L 133.447802 290.784436 
L 134.017572 290.892828 
L 134.13185 290.943522 
L 134.133798 290.942245 
L 134.608444 291.050585 
L 134.720774 291.063362 
L 135.396706 291.173695 
L 135.513257 291.229655 
L 136.045691 291.337523 
L 136.158671 291.355409 
L 136.866743 291.463827 
L 136.984268 291.528342 
L 137.003098 291.52443 
L 137.050173 291.540032 
L 137.094326 291.542571 
L 137.790061 291.653424 
L 138.001736 291.718932 
L 138.013424 291.715382 
L 138.1066 291.741987 
L 138.111145 291.741857 
L 138.846813 291.852568 
L 138.97635 291.90843 
L 139.862658 292.017039 
L 139.97856 292.06661 
L 140.50515 292.175018 
L 140.618779 292.200023 
L 140.619753 292.196225 
L 140.65092 292.208304 
L 140.729487 292.209295 
L 141.517424 292.31624 
L 141.632352 292.374573 
L 142.558592 292.485344 
L 142.672871 292.523688 
L 142.673195 292.523413 
L 142.886169 292.558623 
L 143.160502 292.591442 
L 143.273807 292.641347 
L 143.275755 292.641051 
L 143.296533 292.637444 
L 143.32705 292.648939 
L 143.386462 292.649809 
L 144.297444 292.758151 
L 144.412696 292.806709 
L 145.041877 292.914442 
L 145.129859 292.925854 
L 145.153883 292.921753 
L 146.093759 293.032084 
L 146.208362 293.073108 
L 146.208687 293.071676 
L 146.326861 293.091541 
L 147.31998 293.200119 
L 147.43296 293.245254 
L 147.435233 293.244807 
L 147.851765 293.271813 
L 148.536787 293.343711 
L 148.65139 293.379454 
L 148.651715 293.378979 
L 148.818587 293.426283 
L 149.919167 293.537225 
L 150.03377 293.580366 
L 150.049679 293.57666 
L 150.116233 293.59223 
L 150.144153 293.588643 
L 150.256484 293.599519 
L 151.368751 293.709333 
L 151.482705 293.741464 
L 152.625815 293.848919 
L 152.739769 293.887691 
L 152.740418 293.887074 
L 154.115007 293.994862 
L 154.228961 294.026234 
L 155.205198 294.137344 
L 156.550892 294.254841 
L 156.664197 294.286484 
L 156.664522 294.282691 
L 158.176439 294.391647 
L 158.289419 294.411404 
L 159.805557 294.520465 
L 159.918862 294.54588 
L 159.944185 294.541968 
L 159.946458 294.54949 
L 160.029894 294.549988 
L 162.327801 294.660526 
L 162.44143 294.688152 
L 164.271185 294.795636 
L 164.38449 294.818354 
L 164.517923 294.834279 
L 164.518572 294.834195 
L 164.629279 294.835093 
L 164.748103 294.828986 
L 166.459359 294.937654 
L 166.570391 294.935385 
L 169.389045 295.0448 
L 169.392291 295.043676 
L 169.504622 295.06242 
L 169.610784 295.067785 
L 169.562735 295.072738 
L 169.615329 295.071318 
L 172.869994 295.179203 
L 172.982325 295.193622 
L 173.092707 295.19117 
L 173.005375 295.195848 
L 173.093681 295.192385 
L 178.105054 295.30255 
L 178.219008 295.309603 
L 184.248823 295.420022 
L 184.363101 295.424083 
L 185.286095 295.43485 
L 238.025954 295.323759 
L 238.586633 295.322324 
L 268.654219 295.211302 
L 268.789275 295.206747 
L 398.487273 295.131022 
L 398.487273 295.131022 
" clip-path="url(#p9d43647be0)" style="fill: none; stroke: #1f77b4; stroke-width: 1.5; stroke-linecap: square"/>
   </g>
   <g id="line2d_32">
    <path d="M 73.832727 53.568 
L 73.981419 123.30872 
L 74.403471 123.912669 
L 74.978759 124.338365 
L 76.061158 124.82768 
L 79.575547 126.120859 
L 96.582268 132.1082 
L 117.318949 138.794009 
L 124.157803 140.760301 
L 132.555651 142.943899 
L 138.491965 144.307468 
L 143.17641 145.267746 
L 151.108703 146.651612 
L 157.849836 147.592594 
L 172.870968 149.01338 
L 186.955146 149.726492 
L 206.022451 150.16863 
L 232.875954 150.370203 
L 250.543996 150.410585 
L 283.81268 150.433479 
L 310.278545 150.437613 
L 338.074196 150.438925 
L 392.737635 150.439465 
L 398.487273 150.439482 
L 398.487273 150.439482 
" clip-path="url(#p9d43647be0)" style="fill: none; stroke: #ff7f0e; stroke-width: 1.5; stroke-linecap: square"/>
   </g>
   <g id="patch_3">
    <path d="M 57.6 307.584 
L 57.6 41.472 
" style="fill: none; stroke: #000000; stroke-width: 0.8; stroke-linejoin: miter; stroke-linecap: square"/>
   </g>
   <g id="patch_4">
    <path d="M 414.72 307.584 
L 414.72 41.472 
" style="fill: none; stroke: #000000; stroke-width: 0.8; stroke-linejoin: miter; stroke-linecap: square"/>
   </g>
   <g id="patch_5">
    <path d="M 57.6 307.584 
L 414.72 307.584 
" style="fill: none; stroke: #000000; stroke-width: 0.8; stroke-linejoin: miter; stroke-linecap: square"/>
   </g>
   <g id="patch_6">
    <path d="M 57.6 41.472 
L 414.72 41.472 
" style="fill: none; stroke: #000000; stroke-width: 0.8; stroke-linejoin: miter; stroke-linecap: square"/>
   </g>
   <g id="legend_1">
    <g id="patch_7">
     <path d="M 344.12625 78.82825 
L 407.72 78.82825 
Q 409.72 78.82825 409.72 76.82825 
L 409.72 48.472 
Q 409.72 46.472 407.72 46.472 
L 344.12625 46.472 
Q 342.12625 46.472 342.12625 48.472 
L 342.12625 76.82825 
Q 342.12625 78.82825 344.12625 78.82825 
z
" style="fill: #ffffff; opacity: 0.8; stroke: #cccccc; stroke-linejoin: miter"/>
    </g>
    <g id="line2d_33">
     <path d="M 346.12625 54.570437 
L 356.12625 54.570437 
L 366.12625 54.570437 
" style="fill: none; stroke: #1f77b4; stroke-width: 1.5; stroke-linecap: square"/>
    </g>
    <g id="text_18">
     <!-- defect -->
     <g transform="translate(374.12625 58.070437) scale(0.1 -0.1)">
      <defs>
       <path id="DejaVuSans-64" d="M 2906 2969 
L 2906 4863 
L 3481 4863 
L 3481 0 
L 2906 0 
L 2906 525 
Q 2725 213 2448 61 
Q 2172 -91 1784 -91 
Q 1150 -91 751 415 
Q 353 922 353 1747 
Q 353 2572 751 3078 
Q 1150 3584 1784 3584 
Q 2172 3584 2448 3432 
Q 2725 3281 2906 2969 
z
M 947 1747 
Q 947 1113 1208 752 
Q 1469 391 1925 391 
Q 2381 391 2643 752 
Q 2906 1113 2906 1747 
Q 2906 2381 2643 2742 
Q 2381 3103 1925 3103 
Q 1469 3103 1208 2742 
Q 947 2381 947 1747 
z
" transform="scale(0.015625)"/>
       <path id="DejaVuSans-66" d="M 2375 4863 
L 2375 4384 
L 1825 4384 
Q 1516 4384 1395 4259 
Q 1275 4134 1275 3809 
L 1275 3500 
L 2222 3500 
L 2222 3053 
L 1275 3053 
L 1275 0 
L 697 0 
L 697 3053 
L 147 3053 
L 147 3500 
L 697 3500 
L 697 3744 
Q 697 4328 969 4595 
Q 1241 4863 1831 4863 
L 2375 4863 
z
" transform="scale(0.015625)"/>
       <path id="DejaVuSans-74" d="M 1172 4494 
L 1172 3500 
L 2356 3500 
L 2356 3053 
L 1172 3053 
L 1172 1153 
Q 1172 725 1289 603 
Q 1406 481 1766 481 
L 2356 481 
L 2356 0 
L 1766 0 
Q 1100 0 847 248 
Q 594 497 594 1153 
L 594 3053 
L 172 3053 
L 172 3500 
L 594 3500 
L 594 4494 
L 1172 4494 
z
" transform="scale(0.015625)"/>
      </defs>
      <use xlink:href="#DejaVuSans-64"/>
      <use xlink:href="#DejaVuSans-65" x="63.476562"/>
      <use xlink:href="#DejaVuSans-66" x="125"/>
      <use xlink:href="#DejaVuSans-65" x="160.205078"/>
      <use xlink:href="#DejaVuSans-63" x="221.728516"/>
      <use xlink:href="#DejaVuSans-74" x="276.708984"/>
     </g>
    </g>
    <g id="line2d_34">
     <path d="M 346.12625 69.248562 
L 356.12625 69.248562 
L 366.12625 69.248562 
" style="fill: none; stroke: #ff7f0e; stroke-width: 1.5; stroke-linecap: square"/>
    </g>
    <g id="text_19">
     <!-- loss -->
     <g transform="translate(374.12625 72.748562) scale(0.1 -0.1)">
      <defs>
       <path id="DejaVuSans-6c" d="M 603 4863 
L 1178 4863 
L 1178 0 
L 603 0 
L 603 4863 
z
" transform="scale(0.015625)"/>
       <path id="DejaVuSans-73" d="M 2834 3397 
L 2834 2853 
Q 2591 2978 2328 3040 
Q 2066 3103 1784 3103 
Q 1356 3103 1142 2972 
Q 928 2841 928 2578 
Q 928 2378 1081 2264 
Q 1234 2150 1697 2047 
L 1894 2003 
Q 2506 1872 2764 1633 
Q 3022 1394 3022 966 
Q 3022 478 2636 193 
Q 2250 -91 1575 -91 
Q 1294 -91 989 -36 
Q 684 19 347 128 
L 347 722 
Q 666 556 975 473 
Q 1284 391 1588 391 
Q 1994 391 2212 530 
Q 2431 669 2431 922 
Q 2431 1156 2273 1281 
Q 2116 1406 1581 1522 
L 1381 1569 
Q 847 1681 609 1914 
Q 372 2147 372 2553 
Q 372 3047 722 3315 
Q 1072 3584 1716 3584 
Q 2034 3584 2315 3537 
Q 2597 3491 2834 3397 
z
" transform="scale(0.015625)"/>
      </defs>
      <use xlink:href="#DejaVuSans-6c"/>
      <use xlink:href="#DejaVuSans-6f" x="27.783203"/>
      <use xlink:href="#DejaVuSans-73" x="88.964844"/>
      <use xlink:href="#DejaVuSans-73" x="141.064453"/>
     </g>
    </g>
   </g>
  </g>
 </g>
 <defs>
  <clipPath id="p9d43647be0">
   <rect x="57.6" y="41.472" width="357.12" height="266.112"/>
  </clipPath>
 </defs>
</svg>
